<svg width="102" height="104" viewBox="0 0 102 104" fill="none" xmlns="http://www.w3.org/2000/svg">
<path d="M45 1.00001H66.75C72.5582 1.00001 75.4623 1.00001 77.8773 1.48038C87.7945 3.45305 95.547 11.2055 97.5196 21.1228C98 23.5377 98 26.4418 98 32.25V70.75C98 76.5582 98 79.4623 97.5196 81.8773C95.547 91.7945 87.7945 99.547 77.8773 101.52C75.4623 102 72.5582 102 66.75 102H45V1.00001Z" fill="#D8E1EA"/>
<path d="M2.00001 33.25C2.00001 27.4418 2.00001 24.5377 2.48038 22.1228C4.45305 12.2055 12.2055 4.45305 22.1228 2.48038C24.5377 2.00001 27.4418 2.00001 33.25 2.00001H55.75C61.5582 2.00001 64.4623 2.00001 66.8773 2.48038C76.7945 4.45305 84.547 12.2055 86.5196 22.1228C87 24.5377 87 27.4418 87 33.25V70.75C87 76.5582 87 79.4623 86.5196 81.8773C84.547 91.7945 76.7945 99.547 66.8773 101.52C64.4623 102 61.5582 102 55.75 102H33.25C27.4418 102 24.5377 102 22.1228 101.52C12.2055 99.547 4.45305 91.7945 2.48038 81.8773C2.00001 79.4623 2.00001 76.5582 2.00001 70.75V33.25Z" fill="#D9D9D9"/>
<path d="M2.00001 33.25C2.00001 27.4418 2.00001 24.5377 2.48038 22.1228C4.45305 12.2055 12.2055 4.45305 22.1228 2.48038C24.5377 2.00001 27.4418 2.00001 33.25 2.00001H60.75C66.5582 2.00001 69.4623 2.00001 71.8773 2.48038C81.7945 4.45305 89.547 12.2055 91.5196 22.1228C92 24.5377 92 27.4418 92 33.25V70.75C92 76.5582 92 79.4623 91.5196 81.8773C89.547 91.7945 81.7945 99.547 71.8773 101.52C69.4623 102 66.5582 102 60.75 102H33.25C27.4418 102 24.5377 102 22.1228 101.52C12.2055 99.547 4.45305 91.7945 2.48038 81.8773C2.00001 79.4623 2.00001 76.5582 2.00001 70.75V33.25Z" fill="#FEF8F5"/>
<path d="M1.30252e-05 70.75V33.25C1.30252e-05 27.5377 -0.00991684 24.3893 0.518568 21.7324C2.64907 11.0219 11.0219 2.64907 21.7324 0.518568C24.3893 -0.00991684 27.5377 1.30252e-05 33.25 1.30252e-05V2.00001L29.4004 2.00783C26.0204 2.03034 23.9339 2.12016 22.1228 2.48038L21.6592 2.57716C11.9645 4.69602 4.4222 12.3605 2.48038 22.1228L2.39552 22.582C1.99974 24.9122 2.00001 27.805 2.00001 33.25V70.75C2.00001 76.5582 2.00001 79.4623 2.48038 81.8773C4.45305 91.7945 12.2055 99.547 22.1228 101.52C23.9339 101.88 26.0204 101.97 29.4004 101.992L33.25 102H60.75C66.5582 102 69.4623 102 71.8773 101.52C81.7945 99.547 89.547 91.7945 91.5196 81.8773C92 79.4623 92 76.5582 92 70.75V33.25C92 27.805 92.0003 24.9122 91.6045 22.582L91.5196 22.1228C89.5778 12.3605 82.0355 4.69602 72.3408 2.57716L71.8773 2.48038C69.4623 2.00001 66.5582 2.00001 60.75 2.00001V1.30252e-05C66.4623 1.30252e-05 69.6107 -0.00991684 72.2676 0.518568C82.9782 2.64907 91.351 11.0219 93.4815 21.7324C94.0099 24.3893 94 27.5377 94 33.25V70.75C94 76.4623 94.0099 79.6107 93.4815 82.2676C91.351 92.9782 82.9782 101.351 72.2676 103.481C69.6107 104.01 66.4623 104 60.75 104H33.25C27.5377 104 24.3893 104.01 21.7324 103.481C11.0219 101.351 2.64907 92.9782 0.518568 82.2676C-0.00991684 79.6107 1.30252e-05 76.4623 1.30252e-05 70.75ZM60.75 1.30252e-05V2.00001H33.25V1.30252e-05H60.75Z" fill="#0C1B32"/>
<path d="M80 98.5C88.5 93 90.5 86.5 91.5 82C87.7684 85.2473 84.9985 86.0387 80.5 87C81 92 80.5 96 80 98.5Z" fill="#22406B"/>
<path d="M38.2174 29.0274C42.3116 28.8598 46.6537 29.4534 50.4588 31.0348C50.4588 31.0348 50.4588 31.5274 50.4588 30.5274C50.4588 29.5274 53.2579 29.4595 53.4061 30.5274C53.4635 33.4185 53.4468 36.0671 53.4397 38.9588C53.4405 40.5807 53.3906 42.8691 53.3786 44.063C53.3667 45.2569 51.8098 45.282 51.4044 44.0787C50.2197 40.3648 49.0413 36.3727 45.7535 33.9093C39.4745 29.1009 29.2046 31.6706 26.7909 39.4849C22.6592 52.8616 25.647 73.5854 44.0716 71.0214C47.4099 70.4676 50.9368 68.4297 53.3633 66.1278C53.9142 65.6453 55.5428 67.0274 54.7358 67.959C53.9288 68.8905 54.3449 68.4098 54.1465 68.6327C45.9915 77.7802 32.162 78.0113 23.1235 70.18C18.5208 66.1919 16.3829 60.3967 16.0428 54.4292C15.6746 47.9662 17.6788 40.9273 22.1491 36.141C26.8707 31.0728 31.4724 29.3901 38.2174 29.0274Z" fill="#0C1B32"/>
<path d="M78.7815 52.872C78.4615 53.384 78.0882 53.896 77.6615 54.408C77.2455 54.9093 76.7868 55.3627 76.2855 55.768C75.7842 56.1733 75.2348 56.504 74.6375 56.76C74.0508 57.0053 73.4215 57.128 72.7495 57.128C72.4935 57.128 72.2535 57.096 72.0295 57.032C71.8055 56.968 71.6082 56.872 71.4375 56.744C71.2775 56.616 71.1495 56.456 71.0535 56.264C70.9468 56.0613 70.8935 55.8267 70.8935 55.56C70.8935 55.2827 70.9842 55.032 71.1655 54.808C71.3468 54.584 71.5922 54.472 71.9015 54.472C72.0615 54.472 72.1895 54.5147 72.2855 54.6C72.3922 54.6747 72.4455 54.792 72.4455 54.952C72.4455 55.1013 72.4082 55.2293 72.3335 55.336C72.2588 55.4427 72.1468 55.496 71.9975 55.496C71.8802 55.496 71.7842 55.464 71.7095 55.4C71.6455 55.336 71.6028 55.256 71.5815 55.16C71.4642 55.224 71.3842 55.32 71.3415 55.448C71.2988 55.5653 71.2775 55.688 71.2775 55.816C71.2775 56.1893 71.4162 56.472 71.6935 56.664C71.9815 56.8453 72.3015 56.936 72.6535 56.936C72.8775 56.936 73.0695 56.8933 73.2295 56.808C73.4002 56.712 73.5388 56.5947 73.6455 56.456C73.7628 56.3067 73.8482 56.136 73.9015 55.944C73.9548 55.752 73.9815 55.56 73.9815 55.368C73.9815 55.1653 73.9442 54.9573 73.8695 54.744C73.8055 54.52 73.7308 54.3013 73.6455 54.088C73.5602 53.8747 73.4802 53.6667 73.4055 53.464C73.3308 53.2507 73.2935 53.0533 73.2935 52.872C73.2935 52.6373 73.3415 52.4293 73.4375 52.248C73.5335 52.056 73.6615 51.896 73.8215 51.768C73.9922 51.64 74.1842 51.544 74.3975 51.48C74.6108 51.4053 74.8348 51.368 75.0695 51.368C75.4962 51.368 75.8428 51.464 76.1095 51.656C76.3762 51.8373 76.5095 52.0827 76.5095 52.392C76.5095 52.6693 76.4028 52.872 76.1895 53C75.9868 53.128 75.7575 53.192 75.5015 53.192C75.5655 53.0747 75.6188 52.936 75.6615 52.776C75.7148 52.6053 75.7415 52.4507 75.7415 52.312C75.7415 52.0987 75.6722 51.9227 75.5335 51.784C75.4055 51.6347 75.2188 51.56 74.9735 51.56C74.6642 51.56 74.4348 51.656 74.2855 51.848C74.1362 52.0293 74.0615 52.2533 74.0615 52.52C74.0615 52.7547 74.0988 52.9787 74.1735 53.192C74.2588 53.4053 74.3549 53.6187 74.4615 53.832C74.5575 54.0453 74.6428 54.264 74.7175 54.488C74.8028 54.712 74.8455 54.9627 74.8455 55.24C74.8455 55.4427 74.7975 55.64 74.7015 55.832C74.6162 56.0133 74.4988 56.184 74.3495 56.344C74.2002 56.4933 74.0295 56.6213 73.8375 56.728C73.6562 56.8347 73.4695 56.904 73.2775 56.936L73.3095 56.968C73.8855 56.904 74.4348 56.7387 74.9575 56.472C75.4802 56.1947 75.9655 55.864 76.4135 55.48C76.8722 55.0853 77.2935 54.6587 77.6775 54.2C78.0615 53.7307 78.3975 53.272 78.6855 52.824L78.7815 52.872Z" fill="#0C1B32"/>
<path d="M69.6614 51.496L67.6294 54.456L67.6614 54.488C67.8107 54.3067 67.9974 54.0987 68.2214 53.864C68.4561 53.6187 68.7067 53.3733 68.9734 53.128C69.2507 52.872 69.5387 52.6213 69.8374 52.376C70.1361 52.1307 70.4294 51.912 70.7174 51.72C70.7707 51.6133 70.8294 51.528 70.8934 51.464C70.9574 51.4 71.0854 51.368 71.2774 51.368C71.3947 51.368 71.4961 51.3733 71.5814 51.384C71.6774 51.384 71.7734 51.3893 71.8694 51.4C71.6881 51.5813 71.5121 51.8053 71.3414 52.072C71.1707 52.328 71.0854 52.6107 71.0854 52.92C71.0854 53.1653 71.1441 53.3573 71.2614 53.496C71.3894 53.6347 71.5441 53.704 71.7254 53.704C71.8854 53.704 72.0401 53.672 72.1894 53.608C72.3494 53.544 72.4987 53.464 72.6374 53.368C72.7761 53.272 72.9094 53.1707 73.0374 53.064C73.1654 52.9573 73.2774 52.8613 73.3734 52.776L73.4694 52.84C73.3627 52.9467 73.2401 53.064 73.1014 53.192C72.9627 53.3093 72.8134 53.4213 72.6534 53.528C72.4934 53.6347 72.3227 53.7253 72.1414 53.8C71.9601 53.864 71.7734 53.896 71.5814 53.896C71.2401 53.896 70.9627 53.7947 70.7494 53.592C70.5467 53.3787 70.4454 53.0853 70.4454 52.712C70.4454 52.456 70.5041 52.2267 70.6214 52.024L70.5894 51.992C70.1521 52.2907 69.6721 52.6853 69.1494 53.176C68.6267 53.656 68.0721 54.2267 67.4854 54.888C67.2721 55.1227 67.0481 55.432 66.8134 55.816C66.5894 56.2 66.3921 56.5947 66.2214 57H65.1814C65.7574 56.0827 66.3334 55.1707 66.9094 54.264C67.4854 53.3573 68.0774 52.4347 68.6854 51.496H69.6614Z" fill="#0C1B32"/>
<path d="M65.5813 52.008C65.5813 51.8587 65.5386 51.7467 65.4533 51.672C65.3786 51.5973 65.2826 51.56 65.1653 51.56C64.9413 51.56 64.6959 51.6507 64.4293 51.832C64.1733 52.0027 63.9173 52.2213 63.6613 52.488C63.4053 52.744 63.1706 53.0213 62.9573 53.32C62.7546 53.6187 62.5999 53.8853 62.4933 54.12C62.7279 54.0773 63.0213 53.9973 63.3733 53.88C63.7253 53.752 64.0613 53.5973 64.3813 53.416C64.7119 53.2347 64.9946 53.0267 65.2293 52.792C65.4639 52.5467 65.5813 52.2853 65.5813 52.008ZM68.1733 52.856C68.0133 53.1227 67.8106 53.416 67.5653 53.736C67.3306 54.056 67.0586 54.376 66.7493 54.696C66.4506 55.0053 66.1253 55.3093 65.7733 55.608C65.4319 55.896 65.0746 56.1573 64.7013 56.392C64.3279 56.616 63.9493 56.7973 63.5653 56.936C63.1919 57.064 62.8239 57.128 62.4613 57.128C62.0133 57.128 61.6666 57.016 61.4213 56.792C61.1759 56.5573 61.0533 56.2267 61.0533 55.8C61.0533 55.3307 61.1919 54.84 61.4693 54.328C61.7573 53.8053 62.1199 53.3253 62.5573 52.888C62.9946 52.4507 63.4746 52.088 63.9973 51.8C64.5199 51.512 65.0213 51.368 65.5013 51.368C65.7679 51.368 65.9759 51.4267 66.1253 51.544C66.2746 51.6507 66.3493 51.8107 66.3493 52.024C66.3493 52.28 66.2106 52.5307 65.9333 52.776C65.6559 53.0107 65.3146 53.2293 64.9093 53.432C64.5146 53.624 64.0879 53.8 63.6293 53.96C63.1706 54.1093 62.7653 54.2213 62.4133 54.296C62.2959 54.5093 62.1999 54.7493 62.1253 55.016C62.0506 55.2827 62.0133 55.5493 62.0133 55.816C62.0133 55.944 62.0239 56.072 62.0453 56.2C62.0773 56.3173 62.1199 56.4293 62.1733 56.536C62.2373 56.632 62.3173 56.712 62.4133 56.776C62.5199 56.84 62.6479 56.872 62.7973 56.872C63.1493 56.872 63.5599 56.76 64.0293 56.536C64.5093 56.3013 64.9946 55.992 65.4853 55.608C65.9759 55.224 66.4453 54.7867 66.8933 54.296C67.3413 53.8053 67.7253 53.2987 68.0453 52.776L68.1733 52.856Z" fill="#0C1B32"/>
<path d="M61.0641 49.64L59.8001 51.496H61.9121L61.8161 51.688H59.6721C59.2455 52.3813 58.8615 52.984 58.5201 53.496C58.1895 53.9973 57.9068 54.4347 57.6721 54.808C57.4481 55.1707 57.2775 55.48 57.1601 55.736C57.0428 55.9813 56.9841 56.2 56.9841 56.392C56.9841 56.5947 57.0535 56.7387 57.1921 56.824C57.3308 56.8987 57.4908 56.936 57.6721 56.936C58.0561 56.936 58.4775 56.792 58.9361 56.504C59.4055 56.2053 59.8695 55.8427 60.3281 55.416C60.7868 54.9893 61.2241 54.536 61.6401 54.056C62.0561 53.576 62.4081 53.144 62.6961 52.76L62.7921 52.824C62.4295 53.2827 62.0295 53.768 61.5921 54.28C61.1655 54.7813 60.7228 55.2453 60.2641 55.672C59.8055 56.088 59.3415 56.4347 58.8721 56.712C58.4135 56.9893 57.9761 57.128 57.5601 57.128C57.2295 57.128 56.9415 57.0267 56.6961 56.824C56.4615 56.6213 56.3441 56.3387 56.3441 55.976C56.3441 55.7307 56.4135 55.4587 56.5521 55.16C56.6908 54.8507 56.8721 54.52 57.0961 54.168C57.3201 53.816 57.5708 53.432 57.8481 53.016C58.1361 52.6 58.4295 52.1573 58.7281 51.688H57.8641L57.9601 51.496H58.8561L60.1041 49.64H61.0641Z" fill="#0C1B32"/>
<path d="M54.9468 48.392C54.3814 49.256 53.7948 50.104 53.1868 50.936C52.5788 51.768 51.9974 52.6213 51.4428 53.496L51.4748 53.528C51.6348 53.3147 51.8214 53.0853 52.0348 52.84C52.2481 52.584 52.4774 52.3493 52.7228 52.136C52.9681 51.912 53.2348 51.7307 53.5228 51.592C53.8108 51.4427 54.1041 51.368 54.4028 51.368C54.7441 51.368 55.0321 51.4587 55.2668 51.64C55.5014 51.8213 55.6188 52.136 55.6188 52.584C55.6188 52.8613 55.5814 53.128 55.5068 53.384C55.4321 53.6293 55.3308 53.864 55.2028 54.088C55.0854 54.3013 54.9468 54.504 54.7868 54.696C54.6374 54.8773 54.4828 55.048 54.3228 55.208L54.3548 55.24C55.1228 55.1013 55.8161 54.84 56.4348 54.456C57.0641 54.072 57.6881 53.496 58.3068 52.728L58.4348 52.792C57.9548 53.3787 57.5068 53.8373 57.0908 54.168C56.6748 54.4987 56.2908 54.7493 55.9388 54.92C55.5868 55.08 55.2614 55.192 54.9628 55.256C54.6641 55.32 54.3814 55.384 54.1148 55.448C53.9334 55.5867 53.7254 55.752 53.4908 55.944C53.2668 56.136 53.0268 56.3227 52.7708 56.504C52.5148 56.6747 52.2481 56.824 51.9708 56.952C51.6934 57.0693 51.4108 57.128 51.1228 57.128C50.9734 57.128 50.8241 57.0853 50.6748 57C50.5361 56.9253 50.4668 56.7973 50.4668 56.616C50.4668 56.392 50.5734 56.2053 50.7868 56.056C51.0108 55.9067 51.2774 55.7893 51.5868 55.704C51.9068 55.608 52.2374 55.5387 52.5788 55.496C52.9201 55.4427 53.2081 55.4053 53.4428 55.384C53.5814 55.224 53.7201 55.032 53.8588 54.808C54.0081 54.5733 54.1414 54.328 54.2588 54.072C54.3761 53.816 54.4721 53.5547 54.5468 53.288C54.6214 53.0107 54.6588 52.7547 54.6588 52.52C54.6588 52.1467 54.6054 51.9067 54.4988 51.8C54.3921 51.6827 54.2641 51.624 54.1148 51.624C53.8694 51.624 53.6081 51.7147 53.3308 51.896C53.0641 52.0667 52.7921 52.296 52.5148 52.584C52.2374 52.8613 51.9601 53.176 51.6828 53.528C51.4161 53.8693 51.1654 54.2107 50.9308 54.552C50.6961 54.8933 50.4828 55.2133 50.2908 55.512C50.0988 55.8 49.9388 56.0293 49.8108 56.2C49.7148 56.3387 49.5761 56.5413 49.3948 56.808C49.2134 57.0747 49.0108 57.3787 48.7868 57.72C48.5628 58.0613 48.3281 58.4293 48.0828 58.824C47.8268 59.2187 47.5761 59.6133 47.3308 60.008C47.0854 60.4133 46.8508 60.8027 46.6268 61.176C46.4028 61.5493 46.2054 61.8853 46.0348 62.184H45.0428C46.4828 59.8693 47.9494 57.576 49.4428 55.304C50.9468 53.0213 52.4294 50.7173 53.8908 48.392H54.9468ZM51.3468 56.936C51.5068 56.936 51.6828 56.8827 51.8748 56.776C52.0774 56.6693 52.2694 56.5413 52.4508 56.392C52.6428 56.2427 52.8134 56.0933 52.9628 55.944C53.1121 55.7947 53.2188 55.6827 53.2828 55.608L53.2508 55.576C53.0694 55.608 52.8401 55.6453 52.5628 55.688C52.2961 55.72 52.0348 55.768 51.7788 55.832C51.5334 55.896 51.3201 55.9867 51.1388 56.104C50.9681 56.2107 50.8828 56.36 50.8828 56.552C50.8828 56.68 50.9308 56.776 51.0268 56.84C51.1228 56.904 51.2294 56.936 51.3468 56.936Z" fill="#0C1B32"/>
<path d="M48.3014 51.496H49.3414C48.9467 52.0507 48.5681 52.5893 48.2054 53.112C47.8427 53.6347 47.5174 54.12 47.2294 54.568C46.9521 55.0053 46.7281 55.3947 46.5574 55.736C46.3867 56.0667 46.3014 56.328 46.3014 56.52C46.3014 56.7973 46.4454 56.936 46.7334 56.936C46.9574 56.936 47.2401 56.8293 47.5814 56.616C47.9334 56.392 48.3121 56.088 48.7174 55.704C49.1227 55.32 49.5387 54.872 49.9654 54.36C50.3921 53.848 50.7974 53.304 51.1814 52.728L51.2774 52.76C50.9894 53.1973 50.6481 53.672 50.2534 54.184C49.8694 54.6853 49.4641 55.1547 49.0374 55.592C48.6107 56.0293 48.1841 56.3973 47.7574 56.696C47.3307 56.984 46.9307 57.128 46.5574 57.128C46.2481 57.128 46.0187 57.0533 45.8694 56.904C45.7307 56.744 45.6614 56.5573 45.6614 56.344C45.6614 56.1947 45.6827 56.0507 45.7254 55.912C45.7787 55.7627 45.8321 55.6133 45.8854 55.464L45.8534 55.448C45.7147 55.5973 45.5387 55.7733 45.3254 55.976C45.1227 56.168 44.8987 56.3493 44.6534 56.52C44.4187 56.6907 44.1734 56.8347 43.9174 56.952C43.6614 57.0693 43.4161 57.128 43.1814 57.128C42.7867 57.128 42.5094 57.0053 42.3494 56.76C42.1894 56.5147 42.1094 56.2373 42.1094 55.928C42.1094 55.4907 42.2481 55.0107 42.5254 54.488C42.8027 53.9547 43.1547 53.4587 43.5814 53C44.0081 52.5307 44.4721 52.1413 44.9734 51.832C45.4747 51.5227 45.9494 51.368 46.3974 51.368C46.6107 51.368 46.7974 51.4 46.9574 51.464C47.1174 51.5173 47.2507 51.5973 47.3574 51.704C47.4641 51.8 47.5441 51.912 47.5974 52.04C47.6614 52.168 47.7094 52.3013 47.7414 52.44H47.7734L48.3014 51.496ZM43.0694 55.976C43.0694 56.2213 43.1174 56.4133 43.2134 56.552C43.3201 56.68 43.4641 56.744 43.6454 56.744C43.8267 56.744 44.0401 56.68 44.2854 56.552C44.5307 56.4133 44.7867 56.232 45.0534 56.008C45.3201 55.784 45.5814 55.528 45.8374 55.24C46.1041 54.9413 46.3387 54.6267 46.5414 54.296C46.7441 53.9653 46.9094 53.6293 47.0374 53.288C47.1654 52.9467 47.2294 52.6213 47.2294 52.312C47.2294 52.0667 47.1601 51.88 47.0214 51.752C46.8827 51.624 46.7121 51.56 46.5094 51.56C46.1894 51.56 45.8321 51.6987 45.4374 51.976C45.0427 52.2533 44.6694 52.6107 44.3174 53.048C43.9654 53.4747 43.6667 53.9493 43.4214 54.472C43.1867 54.9947 43.0694 55.496 43.0694 55.976Z" fill="#0C1B32"/>
<path d="M42.264 45.928L36.6 54.344L36.632 54.376C36.8453 54.1093 37.096 53.8053 37.384 53.464C37.672 53.112 37.9813 52.7813 38.312 52.472C38.6533 52.1627 39.0107 51.9013 39.384 51.688C39.7573 51.4747 40.1307 51.368 40.504 51.368C41.1547 51.368 41.48 51.6934 41.48 52.344C41.48 52.5147 41.416 52.7173 41.288 52.952C41.1707 53.1867 41.016 53.4374 40.824 53.704C40.6427 53.96 40.4453 54.2214 40.232 54.488C40.0187 54.7547 39.816 55.016 39.624 55.272C39.4427 55.5174 39.288 55.752 39.16 55.976C39.0427 56.1894 38.984 56.3707 38.984 56.52C38.984 56.6373 39.016 56.7387 39.08 56.824C39.1547 56.8987 39.2507 56.936 39.368 56.936C39.6133 56.936 39.88 56.8614 40.168 56.712C40.4667 56.552 40.7707 56.3493 41.08 56.104C41.4 55.848 41.7147 55.5653 42.024 55.256C42.3333 54.9467 42.616 54.6427 42.872 54.344C43.1387 54.0347 43.3733 53.7467 43.576 53.48C43.7893 53.2027 43.944 52.9787 44.04 52.808L44.136 52.84C44.0187 53.0427 43.8533 53.288 43.64 53.576C43.4267 53.864 43.1813 54.168 42.904 54.488C42.6373 54.808 42.344 55.128 42.024 55.448C41.7147 55.7574 41.4 56.04 41.08 56.296C40.7707 56.5414 40.4613 56.744 40.152 56.904C39.8427 57.0534 39.5547 57.128 39.288 57.128C39.0107 57.128 38.7813 57.0427 38.6 56.872C38.4293 56.7014 38.344 56.4667 38.344 56.168C38.344 55.9547 38.4027 55.72 38.52 55.464C38.648 55.208 38.8027 54.952 38.984 54.696C39.176 54.4294 39.3787 54.168 39.592 53.912C39.8053 53.6454 40.0027 53.3947 40.184 53.16C40.376 52.9253 40.5307 52.712 40.648 52.52C40.776 52.3173 40.84 52.1467 40.84 52.008C40.84 51.8373 40.792 51.72 40.696 51.656C40.6 51.592 40.4827 51.56 40.344 51.56C40.0773 51.56 39.7787 51.6614 39.448 51.864C39.128 52.056 38.792 52.312 38.44 52.632C38.0987 52.952 37.7573 53.3147 37.416 53.72C37.0747 54.1147 36.7493 54.5147 36.44 54.92C36.1413 55.3254 35.8747 55.7094 35.64 56.072C35.416 56.4347 35.24 56.744 35.112 57H34.072C34.6587 56.0827 35.2613 55.1493 35.88 54.2C36.4987 53.2507 37.112 52.3067 37.72 51.368C38.3387 50.4293 38.9413 49.5067 39.528 48.6C40.1147 47.6827 40.6693 46.808 41.192 45.976L42.264 45.928Z" fill="#0C1B32"/>
</svg>
